<?xml version="1.0" encoding="UTF-8" standalone="no"?>
<!-- Created with Inkscape (http://www.inkscape.org/) -->

<svg
   width="4.0038095mm"
   height="5.7570772mm"
   viewBox="0 0 4.0038095 5.7570772"
   version="1.1"
   id="svg1610"
   inkscape:version="1.3.2 (091e20ef0f, 2023-11-25, custom)"
   sodipodi:docname="observer.ui.svg"
   xml:space="preserve"
   xmlns:inkscape="http://www.inkscape.org/namespaces/inkscape"
   xmlns:sodipodi="http://sodipodi.sourceforge.net/DTD/sodipodi-0.dtd"
   xmlns="http://www.w3.org/2000/svg"
   xmlns:svg="http://www.w3.org/2000/svg"><sodipodi:namedview
     id="namedview1612"
     pagecolor="#ffffff"
     bordercolor="#666666"
     borderopacity="1.0"
     inkscape:showpageshadow="2"
     inkscape:pageopacity="0.0"
     inkscape:pagecheckerboard="0"
     inkscape:deskcolor="#d1d1d1"
     inkscape:document-units="mm"
     showgrid="false"
     inkscape:zoom="0.70710678"
     inkscape:cx="1890.0964"
     inkscape:cy="57.275649"
     inkscape:window-width="3840"
     inkscape:window-height="1531"
     inkscape:window-x="0"
     inkscape:window-y="0"
     inkscape:window-maximized="1"
     inkscape:current-layer="layer1" /><defs
     id="defs1607" /><g
     inkscape:label="Layer 1"
     inkscape:groupmode="layer"
     id="layer1"
     transform="translate(-224.98805,-358.65406)"><rect
       y="355.37427"
       x="33.896935"
       height="11.096573"
       width="210.7173"
       id="rect5372"
       style="fill:#1f242b;fill-opacity:0.102738;stroke:none;stroke-width:0.258719" /><path
       id="path30252"
       style="fill:#a0a0a0;fill-opacity:1;stroke-width:0.0155624"
       d="m 227.03712,358.65407 c -1.73415,2.6e-4 -1.82025,9.2e-4 -1.88315,0.0283 -0.0771,0.0324 -0.12922,0.0888 -0.1529,0.16474 -0.0116,0.0369 -0.0154,0.78804 -0.0116,2.35656 l 0.004,2.30248 0.0432,0.0604 c 0.0871,0.12228 0.0339,0.11681 1.20463,0.12165 l 1.03802,0.004 v 0.34131 c 0,0.24548 0.005,0.34613 0.0196,0.35904 v 4.1e-4 c 0.0332,0.0308 0.0617,0.0208 0.19933,-0.0705 0.21388,-0.142 0.18108,-0.14061 0.37272,-0.0182 0.0917,0.0585 0.17784,0.10687 0.19113,0.10687 0.0488,0 0.0578,-0.0577 0.0578,-0.38903 v -0.33073 h 0.40002 c 0.44368,0 0.47193,-0.005 0.47193,-0.0895 0,-0.0885 -0.0101,-0.0903 -0.46147,-0.0903 h -0.41048 v -0.1047 -0.10519 h -0.42004 -0.42005 v 0.10519 0.1047 h -0.98707 c -1.09157,0 -1.07,9.1e-4 -1.12406,-0.095 -0.0576,-0.10363 -0.0191,-0.21569 0.0928,-0.26866 0.0518,-0.0243 0.17355,-0.0261 1.84037,-0.0266 1.37796,-4.1e-4 1.79058,-0.004 1.80986,-0.0185 0.0136,-0.01 0.0377,-0.035 0.0528,-0.0554 0.0259,-0.0345 0.0273,-0.18393 0.0273,-2.14704 0,-1.33423 -0.005,-2.12353 -0.0154,-2.1479 -0.009,-0.0212 -0.0396,-0.052 -0.0686,-0.0684 -0.0521,-0.0295 -0.0824,-0.0302 -1.8704,-0.03 z m -1.1541,0.62178 h 2.00738 a 0.11668497,0.16836631 0 0 1 0.11694,0.16853 0.11668497,0.16836631 0 0 1 -0.11694,0.16897 h -2.00738 a 0.11668497,0.16836631 0 0 1 -0.11693,-0.16897 0.11668497,0.16836631 0 0 1 0.11693,-0.16853 z m 0.48238,0.82705 h 1.66562 a 0.09684615,0.16836631 0 0 1 0.0973,0.16897 0.09684615,0.16836631 0 0 1 -0.0973,0.16853 h -1.66562 a 0.09684615,0.16836631 0 0 1 -0.0974,-0.16853 0.09684615,0.16836631 0 0 1 0.0974,-0.16897 z m -0.20934,0.88366 h 1.46492 c 0.0537,-2.2e-4 0.097,0.0757 0.0969,0.16897 1.3e-4,0.0933 -0.0433,0.16875 -0.0969,0.16854 h -1.46492 c -0.0537,2.1e-4 -0.097,-0.0753 -0.0969,-0.16854 -1.1e-4,-0.0933 0.0433,-0.16919 0.0969,-0.16897 z" /></g></svg>
