<?xml version="1.0" encoding="UTF-8" standalone="no"?>
<!-- Created with Inkscape (http://www.inkscape.org/) -->

<svg
   width="5.4115725mm"
   height="5.4115558mm"
   viewBox="0 0 5.4115725 5.4115558"
   version="1.1"
   id="svg1610"
   inkscape:version="1.3.2 (091e20ef0f, 2023-11-25, custom)"
   sodipodi:docname="observer.ui.svg"
   xml:space="preserve"
   xmlns:inkscape="http://www.inkscape.org/namespaces/inkscape"
   xmlns:sodipodi="http://sodipodi.sourceforge.net/DTD/sodipodi-0.dtd"
   xmlns="http://www.w3.org/2000/svg"
   xmlns:svg="http://www.w3.org/2000/svg"><sodipodi:namedview
     id="namedview1612"
     pagecolor="#ffffff"
     bordercolor="#666666"
     borderopacity="1.0"
     inkscape:showpageshadow="2"
     inkscape:pageopacity="0.0"
     inkscape:pagecheckerboard="0"
     inkscape:deskcolor="#d1d1d1"
     inkscape:document-units="mm"
     showgrid="false"
     inkscape:zoom="0.70710678"
     inkscape:cx="1890.0964"
     inkscape:cy="57.275649"
     inkscape:window-width="3840"
     inkscape:window-height="1531"
     inkscape:window-x="0"
     inkscape:window-y="0"
     inkscape:window-maximized="1"
     inkscape:current-layer="layer1" /><defs
     id="defs1607" /><g
     inkscape:label="Layer 1"
     inkscape:groupmode="layer"
     id="layer1"
     transform="translate(-233.68961,-358.41523)"><rect
       y="355.37427"
       x="33.896935"
       height="11.096573"
       width="210.7173"
       id="rect5372"
       style="fill:#1f242b;fill-opacity:0.102738;stroke:none;stroke-width:0.258719" /><path
       id="circle10-3-5"
       style="fill:#a7a7a7;fill-opacity:1;stroke-width:0.117641"
       d="m 236.3954,358.41523 a 2.7057405,2.7057405 0 0 0 -2.70579,2.70579 2.7057405,2.7057405 0 0 0 2.70579,2.70578 2.7057405,2.7057405 0 0 0 2.70578,-2.70578 2.7057405,2.7057405 0 0 0 -2.70578,-2.70579 z m -6e-4,1.1389 c 0.18826,0 0.34079,0.15324 0.34079,0.34231 0,0.1491 -0.0949,0.27607 -0.22729,0.32305 v 0.78069 c 0.1324,0.047 0.22729,0.17396 0.22729,0.32305 0,0.18908 -0.15253,0.34231 -0.34079,0.34231 -0.18826,0 -0.34078,-0.15323 -0.34078,-0.34231 0,-0.14903 0.0946,-0.27601 0.22698,-0.32305 v -0.78069 c -0.13233,-0.047 -0.22698,-0.17401 -0.22698,-0.32305 0,-0.18907 0.15252,-0.34231 0.34078,-0.34231 z m -0.86113,0.79905 c 0.003,-8e-5 0.005,0 0.009,0 0.18826,0 0.34078,0.15323 0.34078,0.34232 0,0.14906 -0.0949,0.27573 -0.22729,0.32274 v 0.78098 c 0.13242,0.047 0.22729,0.17367 0.22729,0.32273 0,0.18909 -0.15252,0.34232 -0.34078,0.34232 -0.18826,0 -0.34079,-0.15323 -0.34079,-0.34232 0,-0.14906 0.0949,-0.27573 0.2273,-0.32273 v -0.78098 c -0.13241,-0.0471 -0.2273,-0.17368 -0.2273,-0.32274 0,-0.18613 0.14772,-0.33764 0.33192,-0.34232 z m 1.70453,0 c 0.003,-8e-5 0.005,0 0.009,0 0.18826,0 0.34079,0.15323 0.34079,0.34232 0,0.14906 -0.0949,0.27573 -0.2273,0.32274 v 0.78098 c 0.13241,0.047 0.2273,0.17367 0.2273,0.32273 0,0.18909 -0.15253,0.34232 -0.34079,0.34232 -0.18826,0 -0.34109,-0.15323 -0.34109,-0.34232 0,-0.14906 0.0949,-0.27573 0.22729,-0.32273 v -0.78098 c -0.13241,-0.0471 -0.22729,-0.17368 -0.22729,-0.32274 0,-0.18613 0.14803,-0.33764 0.33223,-0.34232 z m -2.49991,0.68463 c 0.003,-7e-5 0.005,0 0.009,0 0.18826,0 0.34079,0.15324 0.34079,0.34232 0,0.18908 -0.15253,0.34231 -0.34079,0.34231 -0.18825,0 -0.34078,-0.15323 -0.34078,-0.34231 0,-0.18612 0.14771,-0.33764 0.33191,-0.34232 z m 3.35187,0 c 0.003,-7e-5 0.005,0 0.009,0 0.18826,0 0.34079,0.15324 0.34079,0.34232 0,0.18908 -0.15253,0.34231 -0.34079,0.34231 -0.18826,0 -0.34079,-0.15323 -0.34079,-0.34231 0,-0.18612 0.14773,-0.33764 0.33192,-0.34232 z" /></g></svg>
