<?xml version="1.0" encoding="UTF-8" standalone="no"?>
<!-- Created with Inkscape (http://www.inkscape.org/) -->

<svg
   width="52.723602mm"
   height="9.5388603mm"
   viewBox="0 0 52.723602 9.5388603"
   version="1.1"
   id="svg1"
   inkscape:version="1.3.2 (091e20ef0f, 2023-11-25, custom)"
   sodipodi:docname="observer.logo.svg"
   xmlns:inkscape="http://www.inkscape.org/namespaces/inkscape"
   xmlns:sodipodi="http://sodipodi.sourceforge.net/DTD/sodipodi-0.dtd"
   xmlns:xlink="http://www.w3.org/1999/xlink"
   xmlns="http://www.w3.org/2000/svg"
   xmlns:svg="http://www.w3.org/2000/svg">
  <sodipodi:namedview
     id="namedview1"
     pagecolor="#ffffff"
     bordercolor="#000000"
     borderopacity="0.25"
     inkscape:showpageshadow="2"
     inkscape:pageopacity="0.0"
     inkscape:pagecheckerboard="0"
     inkscape:deskcolor="#d1d1d1"
     inkscape:document-units="mm"
     inkscape:zoom="1.187507"
     inkscape:cx="859.36334"
     inkscape:cy="348.20847"
     inkscape:window-width="3840"
     inkscape:window-height="1531"
     inkscape:window-x="0"
     inkscape:window-y="0"
     inkscape:window-maximized="1"
     inkscape:current-layer="layer1" />
  <defs
     id="defs1">
    <linearGradient
       inkscape:collect="always"
       xlink:href="#paint0_linear"
       id="linearGradient97"
       gradientUnits="userSpaceOnUse"
       gradientTransform="matrix(0.26458333,0,0,0.26458333,26.722917,41.630469)"
       x1="24"
       y1="1.65649"
       x2="24"
       y2="47.656502" />
    <linearGradient
       id="paint0_linear"
       x1="24"
       y1="1.65649"
       x2="24"
       y2="47.656502"
       gradientUnits="userSpaceOnUse"
       gradientTransform="matrix(0.26458333,0,0,0.26458333,26.722917,41.630469)">
      <stop
         stop-color="#50B6F5"
         id="stop58"
         offset="0"
         style="stop-color:#50b669;stop-opacity:1;" />
      <stop
         offset="1"
         stop-color="#307BF1"
         id="stop60"
         style="stop-color:#307a64;stop-opacity:1;" />
    </linearGradient>
  </defs>
  <g
     inkscape:label="Layer 1"
     inkscape:groupmode="layer"
     id="layer1"
     transform="translate(122.30286,-56.347585)">
    <g
       id="g97"
       transform="matrix(0.75109128,0,0,0.75109128,-142.37421,24.94884)">
      <circle
         cx="33.072918"
         cy="48.154167"
         r="6.0854168"
         fill="url(#paint0_linear)"
         id="circle75"
         style="fill:url(#linearGradient97);stroke-width:0.264583" />
      <path
         fill-rule="evenodd"
         clip-rule="evenodd"
         d="m 33.072917,54.165501 c 3.319965,0 6.011333,-2.691368 6.011333,-6.011333 0,-3.319965 -2.691368,-6.011336 -6.011333,-6.011336 -3.319965,0 -6.011333,2.691371 -6.011333,6.011336 0,3.319965 2.691368,6.011333 6.011333,6.011333 z m 0,0.338667 c 3.506999,0 6.35,-2.843001 6.35,-6.35 0,-3.506999 -2.843001,-6.350002 -6.35,-6.350002 -3.506999,0 -6.35,2.843003 -6.35,6.350002 0,3.506999 2.843001,6.35 6.35,6.35 z"
         fill="white"
         id="path75"
         style="fill:#ffffff;fill-opacity:1;stroke-width:0.264583" />
      <path
         d="m 30.132497,49.001522 c 0,-0.425238 -0.343244,-0.76999 -0.766649,-0.76999 -0.423413,0 -0.766657,0.344752 -0.766657,0.76999 0,0.425265 0.343244,0.770017 0.766657,0.770017 0.423405,0 0.766649,-0.344752 0.766649,-0.770017 z"
         fill="#1F5C8C"
         id="path76"
         style="fill:#1f5c28;fill-opacity:1;stroke-width:0.264583" />
      <path
         d="m 37.671269,49.001522 c 0,-0.425238 -0.343244,-0.76999 -0.766656,-0.76999 -0.423413,0 -0.766657,0.344752 -0.766657,0.76999 0,0.425265 0.343244,0.770017 0.766657,0.770017 0.423412,0 0.766656,-0.344752 0.766656,-0.770017 z"
         fill="#1F5C8C"
         id="path77"
         style="fill:#1f5c28;fill-opacity:1;stroke-width:0.264583" />
      <path
         d="m 31.921371,50.669853 c 0,-0.425239 -0.343244,-0.769991 -0.766657,-0.769991 -0.423412,0 -0.766656,0.344752 -0.766656,0.769991 0,0.425264 0.343244,0.770017 0.766656,0.770017 0.423413,0 0.766657,-0.344753 0.766657,-0.770017 z"
         fill="#1F5C8C"
         id="path78"
         style="fill:#1f5c28;fill-opacity:1;stroke-width:0.264583" />
      <path
         d="m 31.921371,47.461542 c 0,-0.425265 -0.343244,-0.770017 -0.766657,-0.770017 -0.423412,0 -0.766656,0.344752 -0.766656,0.770017 0,0.425238 0.343244,0.76999 0.766656,0.76999 0.423413,0 0.766657,-0.344752 0.766657,-0.76999 z"
         fill="#1F5C8C"
         id="path79"
         style="fill:#1f5c28;fill-opacity:1;stroke-width:0.264583" />
      <path
         d="m 30.899153,50.734041 h 0.511122 v -3.080015 h -0.511122 z"
         fill="#1f5c8c"
         id="path80"
         style="stroke-width:0.264583" />
      <path
         d="m 35.754734,50.669853 c 0,-0.425239 -0.343244,-0.769991 -0.766657,-0.769991 -0.423413,0 -0.766657,0.344752 -0.766657,0.769991 0,0.425264 0.343244,0.770017 0.766657,0.770017 0.423413,0 0.766657,-0.344753 0.766657,-0.770017 z"
         fill="#1F5C8C"
         id="path81"
         style="fill:#1f5c28;fill-opacity:1;stroke-width:0.264583" />
      <path
         d="m 35.754734,47.461542 c 0,-0.425265 -0.343244,-0.770017 -0.766657,-0.770017 -0.423413,0 -0.766657,0.344752 -0.766657,0.770017 0,0.425238 0.343244,0.76999 0.766657,0.76999 0.423413,0 0.766657,-0.344752 0.766657,-0.76999 z"
         fill="#1F5C8C"
         id="path82"
         style="fill:#1f5c28;fill-opacity:1;stroke-width:0.264583" />
      <path
         d="m 34.732542,50.734041 h 0.511096 v -3.080015 h -0.511096 z"
         fill="#1f5c8c"
         id="path83"
         style="stroke-width:0.264583" />
      <path
         d="m 33.838092,48.8732 c 0,-0.425265 -0.343244,-0.769991 -0.766657,-0.769991 -0.423412,0 -0.766656,0.344726 -0.766656,0.769991 0,0.425264 0.343244,0.76999 0.766656,0.76999 0.423413,0 0.766657,-0.344726 0.766657,-0.76999 z"
         fill="#1F5C8C"
         id="path84"
         style="fill:#1f5c28;fill-opacity:1;stroke-width:0.264583" />
      <path
         d="m 33.838092,45.664862 c 0,-0.425265 -0.343244,-0.76999 -0.766657,-0.76999 -0.423412,0 -0.766656,0.344725 -0.766656,0.76999 0,0.425265 0.343244,0.770017 0.766656,0.770017 0.423413,0 0.766657,-0.344752 0.766657,-0.770017 z"
         fill="#1F5C8C"
         id="path85"
         style="fill:#1f5c28;fill-opacity:1;stroke-width:0.264583" />
      <path
         d="m 32.815901,48.937361 h 0.511095 v -3.079988 h -0.511095 z"
         fill="#1f5c8c"
         id="path86"
         style="stroke-width:0.264583" />
      <path
         d="m 30.132497,48.736939 c 0,-0.425238 -0.343244,-0.76999 -0.766649,-0.76999 -0.423413,0 -0.766657,0.344752 -0.766657,0.76999 0,0.425265 0.343244,0.770017 0.766657,0.770017 0.423405,0 0.766649,-0.344752 0.766649,-0.770017 z"
         fill="white"
         id="path87"
         style="fill:#ffffff;fill-opacity:1;stroke-width:0.264583" />
      <path
         d="m 37.671269,48.736939 c 0,-0.425238 -0.343244,-0.76999 -0.766656,-0.76999 -0.423413,0 -0.766657,0.344752 -0.766657,0.76999 0,0.425265 0.343244,0.770017 0.766657,0.770017 0.423412,0 0.766656,-0.344752 0.766656,-0.770017 z"
         fill="white"
         id="path88"
         style="fill:#ffffff;fill-opacity:1;stroke-width:0.264583" />
      <path
         d="m 31.921371,50.405269 c 0,-0.425238 -0.343244,-0.76999 -0.766657,-0.76999 -0.423412,0 -0.766656,0.344752 -0.766656,0.76999 0,0.425265 0.343244,0.770017 0.766656,0.770017 0.423413,0 0.766657,-0.344752 0.766657,-0.770017 z"
         fill="white"
         id="path89"
         style="fill:#ffffff;fill-opacity:1;stroke-width:0.264583" />
      <path
         d="m 31.921371,47.196958 c 0,-0.425264 -0.343244,-0.770017 -0.766657,-0.770017 -0.423412,0 -0.766656,0.344753 -0.766656,0.770017 0,0.425239 0.343244,0.769991 0.766656,0.769991 0.423413,0 0.766657,-0.344752 0.766657,-0.769991 z"
         fill="white"
         id="path90"
         style="fill:#ffffff;fill-opacity:1;stroke-width:0.264583" />
      <path
         d="m 30.899153,50.469457 h 0.511122 v -3.080014 h -0.511122 z"
         fill="white"
         id="path91"
         style="fill:#ffffff;fill-opacity:1;stroke-width:0.264583" />
      <path
         d="m 35.754734,50.405269 c 0,-0.425238 -0.343244,-0.76999 -0.766657,-0.76999 -0.423413,0 -0.766657,0.344752 -0.766657,0.76999 0,0.425265 0.343244,0.770017 0.766657,0.770017 0.423413,0 0.766657,-0.344752 0.766657,-0.770017 z"
         fill="white"
         id="path92"
         style="fill:#ffffff;fill-opacity:1;stroke-width:0.264583" />
      <path
         d="m 35.754734,47.196958 c 0,-0.425264 -0.343244,-0.770017 -0.766657,-0.770017 -0.423413,0 -0.766657,0.344753 -0.766657,0.770017 0,0.425239 0.343244,0.769991 0.766657,0.769991 0.423413,0 0.766657,-0.344752 0.766657,-0.769991 z"
         fill="white"
         id="path93"
         style="fill:#ffffff;fill-opacity:1;stroke-width:0.264583" />
      <path
         d="m 34.732542,50.469457 h 0.511096 v -3.080014 h -0.511096 z"
         fill="white"
         id="path94"
         style="fill:#ffffff;fill-opacity:1;stroke-width:0.264583" />
      <path
         d="m 33.838092,48.608616 c 0,-0.425265 -0.343244,-0.76999 -0.766657,-0.76999 -0.423412,0 -0.766656,0.344725 -0.766656,0.76999 0,0.425265 0.343244,0.769991 0.766656,0.769991 0.423413,0 0.766657,-0.344726 0.766657,-0.769991 z"
         fill="#ffffff"
         id="path95"
         style="stroke-width:0.264583" />
      <path
         d="m 33.838092,45.400279 c 0,-0.425265 -0.343244,-0.769991 -0.766657,-0.769991 -0.423412,0 -0.766656,0.344726 -0.766656,0.769991 0,0.425265 0.343244,0.770017 0.766656,0.770017 0.423413,0 0.766657,-0.344752 0.766657,-0.770017 z"
         fill="white"
         id="path96"
         style="fill:#ffffff;fill-opacity:1;stroke-width:0.264583" />
      <path
         d="m 32.815901,48.672778 h 0.511095 V 45.59279 h -0.511095 z"
         fill="white"
         id="path97"
         style="fill:#ffffff;fill-opacity:1;stroke-width:0.264583" />
    </g>
    <path
       style="font-weight:bold;font-size:8.33086px;line-height:1.25;font-family:'Fira Code';-inkscape-font-specification:'Fira Code Bold';fill:#ffffff;stroke-width:0.208272"
       d="m -107.71326,58.814248 q 0.70064,0 1.19195,0.299057 0.49131,0.299056 0.75191,0.84163 0.26061,0.538302 0.26061,1.264582 0,1.136415 -0.58102,1.781523 -0.58103,0.645107 -1.62345,0.645107 -1.04243,0 -1.62345,-0.636563 -0.58103,-0.636563 -0.58103,-1.781522 0,-0.722008 0.26061,-1.264582 0.26488,-0.542574 0.75619,-0.845903 0.49557,-0.303329 1.18768,-0.303329 z m 0,0.995431 q -0.41441,0 -0.61521,0.341779 -0.19652,0.337507 -0.19652,1.076604 0,0.751913 0.19652,1.08942 0.2008,0.337506 0.61521,0.337506 0.4144,0 0.61093,-0.337506 0.20079,-0.337507 0.20079,-1.097965 0,-0.734824 -0.20079,-1.072331 -0.19653,-0.337507 -0.61093,-0.337507 z m 4.51148,-0.380229 q 0.21361,-0.281967 0.51267,-0.448585 0.30333,-0.166617 0.64938,-0.166617 0.87581,0 1.27313,0.64938 0.40159,0.64938 0.40159,1.755889 0,0.700647 -0.20934,1.251765 -0.20507,0.546846 -0.61093,0.862992 -0.40587,0.311873 -0.99543,0.311873 -0.71347,0 -1.1236,-0.555391 l -0.0513,0.410135 h -1.19623 v -6.339998 l 1.35003,-0.140984 z m 0.66647,3.234083 q 0.35887,0 0.56821,-0.328962 0.20934,-0.333235 0.20934,-1.097965 0,-0.563935 -0.0897,-0.871536 -0.0854,-0.311873 -0.24779,-0.431496 -0.15807,-0.123895 -0.37169,-0.123895 -0.22643,0 -0.40586,0.140984 -0.17943,0.140984 -0.32896,0.384501 v 1.913962 q 0.12817,0.200795 0.28624,0.307601 0.15807,0.106806 0.38023,0.106806 z m 4.930165,0.01709 q 0.337507,0 0.542574,-0.106806 0.20934,-0.106806 0.20934,-0.320418 0,-0.145256 -0.08117,-0.243517 -0.08117,-0.09826 -0.311873,-0.187979 -0.230701,-0.08972 -0.683558,-0.213611 -0.623746,-0.166618 -1.016792,-0.478491 -0.388773,-0.311873 -0.388773,-0.914258 0,-0.606658 0.504124,-1.003976 0.508396,-0.397318 1.465376,-0.397318 0.606658,0 1.055243,0.158073 0.452857,0.153801 0.781819,0.393046 l -0.538302,0.794636 q -0.281967,-0.175162 -0.606657,-0.277696 -0.32469,-0.106806 -0.653652,-0.106806 -0.64938,0 -0.64938,0.350324 0,0.11535 0.08117,0.200795 0.08544,0.08117 0.316146,0.170889 0.2307,0.08544 0.675013,0.213612 0.44004,0.123895 0.76473,0.28624 0.328962,0.162345 0.508396,0.435768 0.179434,0.269151 0.179434,0.713463 0,0.49558 -0.294784,0.833086 -0.294784,0.333235 -0.781819,0.499852 -0.487035,0.166617 -1.068059,0.166617 -0.657925,0 -1.162048,-0.187978 -0.504124,-0.187979 -0.85872,-0.49558 l 0.679286,-0.760458 q 0.264878,0.205068 0.598113,0.341779 0.337506,0.136712 0.734823,0.136712 z m 4.477307,-1.055242 q 0.06836,0.55539 0.36314,0.798908 0.294785,0.239245 0.726281,0.239245 0.311873,0 0.602385,-0.102534 0.290512,-0.102533 0.559663,-0.273423 l 0.542574,0.734825 q -0.320418,0.273423 -0.777547,0.448584 -0.452857,0.175162 -1.033881,0.175162 -0.777547,0 -1.303032,-0.307601 -0.525485,-0.311873 -0.790364,-0.854447 -0.264879,-0.542574 -0.264879,-1.247493 0,-0.670741 0.256335,-1.217587 0.256334,-0.551119 0.747641,-0.875809 0.495579,-0.328962 1.209043,-0.328962 0.64938,0 1.123598,0.277696 0.47849,0.277695 0.739097,0.798908 0.264878,0.521213 0.264878,1.251765 0,0.11535 -0.0085,0.24779 -0.0043,0.132439 -0.01709,0.234973 z m 0.837359,-1.905418 q -0.36314,0 -0.585297,0.260607 -0.222156,0.260606 -0.269151,0.833086 h 1.666172 q -0.0043,-0.49558 -0.19225,-0.794636 -0.187979,-0.299057 -0.619474,-0.299057 z m 3.161458,3.780929 v -0.905714 h 0.598113 v -2.734231 h -0.598113 v -0.897169 h 1.627722 l 0.24779,1.021064 q 0.243517,-0.585296 0.619474,-0.871536 0.380229,-0.28624 0.927075,-0.28624 0.230701,0 0.410135,0.03845 0.179434,0.03418 0.337506,0.09826 l -0.252061,1.896872 h -0.845903 V 60.02329 q -0.384501,0.06836 -0.675013,0.418679 -0.290513,0.346051 -0.448585,0.854447 v 1.29876 h 0.897169 v 0.905714 z m 9.364744,-4.537114 -1.512371,4.537114 h -1.589272 l -1.52946,-4.537114 h 1.456832 l 0.884353,3.503233 0.922803,-3.503233 z m 2.016501,2.661603 q 0.06835,0.55539 0.36314,0.798908 0.294784,0.239245 0.72628,0.239245 0.311873,0 0.602385,-0.102534 0.290512,-0.102533 0.559663,-0.273423 l 0.542574,0.734825 q -0.320418,0.273423 -0.777547,0.448584 -0.452857,0.175162 -1.033881,0.175162 -0.777547,0 -1.303032,-0.307601 -0.525485,-0.311873 -0.790364,-0.854447 -0.264878,-0.542574 -0.264878,-1.247493 0,-0.670741 0.256334,-1.217587 0.256334,-0.551119 0.747641,-0.875809 0.495579,-0.328962 1.209043,-0.328962 0.64938,0 1.123598,0.277696 0.47849,0.277695 0.739097,0.798908 0.264878,0.521213 0.264878,1.251765 0,0.11535 -0.0085,0.24779 -0.0043,0.132439 -0.01709,0.234973 z m 0.837358,-1.905418 q -0.36314,0 -0.585297,0.260607 -0.222156,0.260606 -0.26915,0.833086 h 1.666172 q -0.0043,-0.49558 -0.192251,-0.794636 -0.187978,-0.299057 -0.619474,-0.299057 z m 3.161459,3.780929 v -0.905714 h 0.598113 v -2.734231 h -0.598113 v -0.897169 h 1.627722 l 0.24779,1.021064 q 0.243517,-0.585296 0.619474,-0.871536 0.380229,-0.28624 0.927075,-0.28624 0.230701,0 0.410135,0.03845 0.179434,0.03418 0.337507,0.09826 l -0.252062,1.896872 h -0.845903 V 60.02329 q -0.384501,0.06836 -0.675013,0.418679 -0.290512,0.346051 -0.448585,0.854447 v 1.29876 h 0.897169 v 0.905714 z"
       id="text97"
       aria-label="observer" />
  </g>
</svg>
